<svg width="70" height="70" viewBox="0 0 70 70" fill="none" xmlns="http://www.w3.org/2000/svg">
<rect width="70" height="70" rx="10" fill="#FFDEDE"/>
<path d="M32.6378 58.6C29.4804 58.6 26.6858 58.28 24.2538 57.64C21.8644 57.0427 19.9871 56.1467 18.6218 54.952C17.2991 53.7147 16.6378 52.2213 16.6378 50.472C16.6378 49.4907 16.8938 48.5947 17.4058 47.784C17.9178 46.9733 18.5791 46.312 19.3898 45.8C20.7551 48.4027 22.5684 50.408 24.8298 51.816C27.1338 53.1813 29.6084 53.864 32.2538 53.864C35.7951 53.864 38.6964 53.2453 40.9578 52.008C43.2618 50.7707 44.4137 48.9147 44.4137 46.44C44.4137 45.16 43.9658 44.0933 43.0698 43.24C42.1738 42.344 40.9791 41.5547 39.4858 40.872C37.9924 40.1893 36.3711 39.5493 34.6218 38.952C32.8724 38.312 31.1018 37.608 29.3098 36.84C27.5604 36.072 25.9391 35.176 24.4458 34.152C22.9524 33.128 21.7578 31.8693 20.8618 30.376C19.9658 28.8827 19.5178 27.0907 19.5178 25C19.5178 22.9093 20.0511 20.9893 21.1178 19.24C22.2271 17.4907 23.7844 15.976 25.7898 14.696C27.7951 13.3733 30.1844 12.3493 32.9578 11.624C35.7311 10.8987 38.8244 10.536 42.2378 10.536C44.8831 10.536 47.2298 10.8133 49.2778 11.368C51.3258 11.88 52.9258 12.6053 54.0778 13.544C55.2724 14.4827 55.8698 15.5707 55.8698 16.808C55.8698 18.6427 55.2724 20.0293 54.0778 20.968C52.8831 21.9067 51.3471 22.376 49.4698 22.376C47.4644 22.376 45.8004 21.7787 44.4778 20.584C43.1978 19.3893 42.2164 17.6827 41.5338 15.464C37.1818 15.976 33.7898 17.0213 31.3578 18.6C28.9684 20.136 27.7738 21.9707 27.7738 24.104C27.7738 25.2987 28.2218 26.3227 29.1178 27.176C30.0138 27.9867 31.2084 28.712 32.7018 29.352C34.1951 29.992 35.8164 30.632 37.5658 31.272C39.3151 31.912 41.0644 32.616 42.8138 33.384C44.6058 34.1093 46.2484 34.984 47.7418 36.008C49.2351 37.032 50.4298 38.2693 51.3258 39.72C52.2218 41.1707 52.6698 42.92 52.6698 44.968C52.6698 46.8027 52.2431 48.552 51.3898 50.216C50.5364 51.8373 49.2564 53.288 47.5498 54.568C45.8858 55.8053 43.7951 56.7867 41.2778 57.512C38.8031 58.2373 35.9231 58.6 32.6378 58.6Z" fill="black"/>
</svg>
